<svg xmlns="http://www.w3.org/2000/svg" version="1.1" width="2691" height="1850" viewBox="-500 -500 2691 1850"><path transform="translate(0,600)" d="M80,-80L80,-560L0,-540L0,-40C0,-15,15,0,38,0L120,0L120,-70L90,-70C83,-70,80,-73,80,-80Z"></path><path transform="translate(147,300)" d="M17,0L64,-79L47,-89L0,-10L17,0Z"></path><path transform="translate(120,600)" d="M-20,0L59,0C65,0,80,0,80,-11L80,-230L0,-210L0,-70L-20,-70L-20,0Z"></path><path transform="translate(240,600)" d="M80,-80L80,-560L0,-540L0,-40C0,-15,15,0,38,0L120,0L120,-70L90,-70C83,-70,80,-73,80,-80Z"></path><path transform="translate(299,724)" d="M17,0L64,-79L47,-89L0,-10L17,0Z"></path><path transform="translate(360,600)" d="M-20,0L59,0C65,0,80,0,80,-11L80,-230L0,-210L0,-70L-20,-70L-20,0Z"></path><path transform="translate(480,600)" d=""></path><path transform="translate(480,600)" d="M0,0L600,0L600,-70L557,-70C542,-165,484,-180,446,-180L120,-180L147,-250L144,-250L64,-110L436,-110C458,-110,476,-92,476,-70L40,-70L0,0Z"></path><path transform="translate(1060,600)" d="M-20,0L240,0L240,-70L199,-70C199,-76,200,-83,200,-90C200,-140,155,-180,100,-180C45,-180,0,-140,0,-90C0,-83,1,-76,2,-70L-20,-70L-20,0ZM100,-70C89,-70,80,-79,80,-90C80,-101,89,-110,100,-110C111,-110,120,-101,120,-90C120,-79,111,-70,100,-70Z"></path><path transform="translate(1260,600)" d="M192,160L251,103L192,0L251,0L251,-70L151,-70L59,-230L0,-173L59,-70L-20,-70L-20,0L80,0L99,0L192,160Z"></path><path transform="translate(1451,600)" d="M-20,0L100,0C165,0,200,-30,200,-90C200,-140,155,-180,100,-180C45,-180,0,-140,0,-90C0,-83,1,-76,2,-70L-20,-70L-20,0ZM100,-70C89,-70,80,-79,80,-90C80,-101,89,-110,100,-110C111,-110,120,-101,120,-90C120,-79,111,-70,100,-70Z"></path></svg>