<svg xmlns="http://www.w3.org/2000/svg" version="1.1" width="2136" height="1850" viewBox="-500 -500 2136 1850"><path transform="translate(0,600)" d="M165,-50C150,-50,141,-62,141,-76C141,-91,153,-107,179,-107C189,-107,200,-105,213,-100C203,-132,178,-150,153,-150C98,-150,75,-94,88,-50L69,-50L40,0L226,0L256,-50L165,-50Z"></path><path transform="translate(296,600)" d="M80,-80L80,-560L0,-540L0,-40C0,-15,15,0,38,0L120,0L120,-70L90,-70C83,-70,80,-73,80,-80Z"></path><path transform="translate(443,300)" d="M17,0L64,-79L47,-89L0,-10L17,0Z"></path><path transform="translate(416,600)" d="M-20,0L120,0L120,-70C98,-70,80,-88,80,-110L80,-230L0,-210L0,-70L-20,-70L-20,0Z"></path><path transform="translate(535,724)" d="M17,0L64,-79L47,-89L0,-10L17,0Z"></path><path transform="translate(536,600)" d="M-20,0L120,0L120,-70C98,-70,80,-88,80,-110L80,-230L0,-210L0,-70L-20,-70L-20,0Z"></path><path transform="translate(656,600)" d="M-20,0L42,0C65,0,80,-15,80,-40L80,-560L0,-540L0,-70L-20,-70L-20,0Z"></path><path transform="translate(776,600)" d="M80,-140L80,-560L0,-540L0,-130C5,-42,79,0,158,0C218,0,281,-24,320,-70C292,-58,248,-48,205,-48C141,-48,80,-70,80,-140Z"></path></svg>