<svg xmlns="http://www.w3.org/2000/svg" version="1.1" width="3200" height="2350" viewBox="-500 -500 3200 2350"><path transform="translate(0,1200)" d="M0,0L100,0L100,-1000L0,-1000L0,0ZM0,-980L100,-980L100,-1000C100,-1049,147,-1050,150,-1050C85,-1080,30,-1132,0,-1200L0,-980Z"></path><path transform="translate(150,750)" style="fill:#d22e1f;fill-opacity:1" d="M50,0C78,0,100,-22,100,-50C100,-78,78,-100,50,-100C22,-100,0,-78,0,-50C0,-22,22,0,50,0Z"></path><path transform="translate(100,1200)" d="M-50,0L150,0L150,-250L50,-250L50,-100L-50,-100L-50,0ZM150,-230L150,-400C127,-342,65,-300,0,-300C0,-300,50,-300,50,-250L50,-230L150,-230Z"></path><path transform="translate(300,1200)" d="M0,0L100,0L100,-1000L0,-1000L0,0ZM0,-980L100,-980L100,-1000C100,-1049,147,-1050,150,-1050C85,-1080,30,-1132,0,-1200L0,-980Z"></path><path transform="translate(375,1350)" style="fill:#d22e1f;fill-opacity:1" d="M50,0C78,0,100,-22,100,-50C100,-78,78,-100,50,-100C22,-100,0,-78,0,-50C0,-22,22,0,50,0Z"></path><path transform="translate(400,1200)" d="M-50,0L150,0L150,-250L50,-250L50,-100L-50,-100L-50,0ZM150,-230L150,-400C127,-342,65,-300,0,-300C0,-300,50,-300,50,-250L50,-230L150,-230Z"></path><path transform="translate(550,1200)" d=""></path><path transform="translate(600,1200)" d="M0,-400L0,-200L100,-200L100,-400L0,-400ZM0,0L800,0L800,-100L0,-100L0,0ZM700,0L800,0L800,-250L700,-250L700,0ZM0,-250L0,-150L650,-150L650,-250L0,-250ZM675,-400C605,-400,550,-343,550,-274L550,-230L650,-230L650,-276C650,-289,661,-300,675,-300C689,-300,700,-289,700,-276L700,-230L800,-230L800,-274C800,-343,744,-400,675,-400ZM0,-380L100,-380L100,-400C100,-450,150,-450,150,-450C85,-450,23,-492,0,-550L0,-380Z"></path><path transform="translate(1400,1200)" d="M-50,0L76,0L76,-100L-50,-100L-50,0ZM175,75C244,75,300,19,300,-50C300,-119,244,-175,175,-175C106,-175,50,-119,50,-50C50,19,106,75,175,75ZM175,-25C161,-25,150,-36,150,-50C150,-64,161,-75,175,-75C189,-75,200,-64,200,-50C200,-36,189,-25,175,-25ZM131,-157L219,-157L219,-167C206,-171,175,-198,175,-225C175,-198,144,-171,131,-167L131,-157Z"></path><path transform="translate(1700,1200)" d="M200,0L300,0L300,-100L200,-100L200,0ZM88,-90L239,-90C192,-101,161,-127,161,-181C161,-236,200,-300,200,-377C200,-470,128,-550,40,-550L-150,-550C-113,-500,-97,-450,-100,-400C-92,-416,-64,-450,-25,-450C-12,-450,-7,-450,10,-450C53,-450,100,-419,100,-376C100,-312,59,-261,59,-181C59,-136,71,-108,88,-90ZM-50,0L200,0L200,-100L-50,-100L-50,0ZM280,0L450,0C392,-23,350,-85,350,-150C350,-150,350,-100,300,-100L280,-100L280,0Z"></path><path transform="translate(1900,1048)" d="M-50,0L300,0L300,-100L-50,-100L-50,0ZM200,-50L300,-50L300,-250L200,-250L200,-50ZM50,0L300,0L300,-100L50,-100L50,0ZM200,-240L300,-240L300,-300C277,-270,241,-250,200,-250L200,-240ZM150,-90L150,-100C150,-128,172,-150,200,-150L210,-150L210,-250L200,-250C117,-250,50,-183,50,-100L50,-90L150,-90Z"></path></svg>